<?xml version="1.0" encoding="utf-8"?>
<!-- Generator: Adobe Illustrator 17.0.0, SVG Export Plug-In . SVG Version: 6.00 Build 0)  -->
<!DOCTYPE svg PUBLIC "-//W3C//DTD SVG 1.1//EN" "http://www.w3.org/Graphics/SVG/1.1/DTD/svg11.dtd">
<svg version="1.1" id="レイヤー_1" xmlns="http://www.w3.org/2000/svg" xmlns:xlink="http://www.w3.org/1999/xlink" x="0px"
	 y="0px" width="1200px" height="800px" viewBox="0 0 1200 800" enable-background="new 0 0 1200 800" xml:space="preserve">
<text transform="matrix(1 0 0 1 1310.5045 426.1084)"><tspan x="0" y="0" font-family="'HelveticaNeue'" font-size="113.6433" letter-spacing="2">k</tspan><tspan x="61.253" y="0" font-family="'HelveticaNeue'" font-size="113.6433" letter-spacing="-2">n</tspan><tspan x="122.166" y="0" font-family="'HelveticaNeue'" font-size="113.6433" letter-spacing="-4">o</tspan><tspan x="182.85" y="0" font-family="'HelveticaNeue'" font-size="113.6433">w</tspan></text>
<path d="M269.86,228.955v70.683v70.683l39.436-37.765l39.436-37.765h19.049h19.049l-34.255,31.415l-34.255,31.415l36.762,54.976
	l36.762,54.976h-18.047H355.75l-29.577-45.117l-29.577-45.117l-13.368,12.366L269.86,402.07v32.751v32.751h-14.204h-14.204V348.264
	V228.955h14.204H269.86L269.86,228.955z"/>
<path d="M446.65,294.792v13.702v13.702h0.334h0.334l22.891-23.56l33.254-7.855l15.623,1.17l12.784,3.508l10.275,5.601l8.106,7.434
	l5.973,9.149l3.886,10.736l2.129,12.156l0.711,13.41v56.814v56.814h-14.203h-14.203v-58.485v-58.485l-2.341-14.37l-7.017-11.029
	l-11.114-7.017l-14.619-2.341l-12.157,1.003l-10.402,3.008l-8.732,4.847l-7.142,6.515l-5.557,7.981l-3.967,9.23l-2.382,10.32
	l-0.792,11.236v48.793v48.793h-14.204h-14.204v-86.391v-86.391h13.368H446.65L446.65,294.792z"/>
<polygon points="595.035,345.757 601.717,330.302 611.077,317.016 623.023,306.114 637.479,297.799 654.354,292.536 
	673.572,290.781 692.997,292.536 709.833,297.799 724.161,306.114 736.067,317.016 745.424,330.302 752.109,345.757 
	756.118,362.927 757.456,381.349 756.118,399.732 752.109,416.775 745.424,432.108 736.067,445.349 724.161,456.213 
	709.833,464.398 692.997,469.535 673.572,471.249 654.354,469.535 637.479,464.398 623.023,456.213 611.077,445.349 
	601.717,432.108 595.035,416.775 591.024,399.732 589.688,381.349 591.024,362.927 595.035,345.757 "/>
<polygon fill="#FFFFFF" points="623.943,409.256 628.914,420.453 635.474,429.642 643.451,436.871 652.685,442.174 662.835,445.433 
	673.572,446.519 684.308,445.433 694.46,442.174 703.69,436.871 711.671,429.642 718.227,420.453 723.201,409.256 726.334,396.182 
	727.379,381.349 726.334,366.521 723.201,353.444 718.227,342.208 711.671,332.891 703.69,325.54 694.46,320.191 684.308,316.934 
	673.572,315.846 662.835,316.934 652.685,320.191 643.451,325.54 635.474,332.891 628.914,342.208 623.943,353.444 620.809,366.521 
	619.767,381.349 620.809,396.182 623.943,409.256 "/>
<path d="M918.537,467.573l-17.545-68.678l-17.545-68.678h-0.334h-0.334l-17.378,68.678l-17.378,68.678h-15.374h-15.374
	l-27.738-86.391l-27.738-86.391h15.707h15.707l19.551,70.683l19.551,70.683h0.334h0.334l17.378-70.683l17.378-70.683h15.541h15.541
	l18.047,70.683l18.047,70.683h0.334h0.334l19.384-70.683l19.384-70.683h14.705h14.705l-27.571,86.391l-27.571,86.391h-15.039
	H918.537L918.537,467.573z"/>
<text transform="matrix(1 0 0 1 1302.2662 646.1084)"><tspan x="0" y="0" font-family="'HelveticaNeue-Bold'" font-size="113.6433" letter-spacing="2">k</tspan><tspan x="67.503" y="0" font-family="'HelveticaNeue-Bold'" font-size="113.6433" letter-spacing="-4">n</tspan><tspan x="130.346" y="0" font-family="'HelveticaNeue-Bold'" font-size="113.6433" letter-spacing="-6">o</tspan><tspan x="192.963" y="0" font-family="'HelveticaNeue-Bold'" font-size="113.6433">w</tspan></text>
<text transform="matrix(1 0 0 1 1319.0848 211.1084)"><tspan x="0" y="0" font-family="'HelveticaNeue-UltraLight'" font-size="113.6433" letter-spacing="6">k</tspan><tspan x="57.274" y="0" font-family="'HelveticaNeue-UltraLight'" font-size="113.6433">now</tspan></text>
</svg>
